<svg xmlns="http://www.w3.org/2000/svg" width="40" height="40" viewBox="0 0 40 40"><defs><style>.a{fill:none;}.b{fill:#4797ab;}</style></defs><path class="a" d="M0,0H40V40H0Z"/><path class="b" d="M10.368,16.222a7.558,7.558,0,0,0,0,15.111,7.558,7.558,0,0,0,0-15.111Zm0,11.333a3.779,3.779,0,0,1,0-7.556,3.779,3.779,0,0,1,0,7.556Zm14.755-1.889a5.668,5.668,0,1,0,5.526,5.667A5.614,5.614,0,0,0,25.124,25.667Zm0,7.556a1.889,1.889,0,1,1,1.842-1.889A1.871,1.871,0,0,1,25.124,33.222ZM27.868,3A10.281,10.281,0,0,0,17.737,13.389,10.281,10.281,0,0,0,27.868,23.778,10.281,10.281,0,0,0,38,13.389,10.281,10.281,0,0,0,27.868,3Zm0,17a6.538,6.538,0,0,1-6.447-6.611,6.449,6.449,0,1,1,12.895,0A6.538,6.538,0,0,1,27.868,20Z" transform="translate(0 0)"/></svg>