<svg xmlns="http://www.w3.org/2000/svg" width="40" height="40" viewBox="0 0 40 40"><defs><style>.a{fill:none;}.b{fill:#4797ab;}</style></defs><path class="a" d="M0,0H40V40H0Z"/><path class="b" d="M38.333,18.218,30,18.2A1.742,1.742,0,0,0,28.333,20V36.2A1.742,1.742,0,0,0,30,38h8.333A1.742,1.742,0,0,0,40,36.2V20A1.726,1.726,0,0,0,38.333,18.218Zm0,16.182H30V21.8h8.333Zm-5-32.4h-30A3.462,3.462,0,0,0,0,5.6V27.2a3.474,3.474,0,0,0,3.333,3.6H15v3.6H11.667V38H25V34.4H21.667V30.8H25V27.2H3.333V5.6h30v9h3.333v-9A3.473,3.473,0,0,0,33.333,2ZM19.95,14.6,18.333,9.2l-1.617,5.4h-5.05l4.117,3.168-1.567,5.238,4.117-3.24,4.117,3.24-1.567-5.238L25,14.6Z" transform="translate(0 0)"/></svg>