<svg xmlns="http://www.w3.org/2000/svg" width="16" height="16" viewBox="0 0 16 16"><defs><style>.a{fill:#6ce2ff;}</style></defs><path class="a" d="M14.857,0H1.139A1.148,1.148,0,0,0,0,1.154V14.846A1.148,1.148,0,0,0,1.139,16H14.857A1.151,1.151,0,0,0,16,14.846V1.154A1.151,1.151,0,0,0,14.857,0ZM4.836,13.714H2.464V6.079H4.839v7.636ZM3.65,5.036A1.375,1.375,0,1,1,5.025,3.661,1.376,1.376,0,0,1,3.65,5.036Zm10.075,8.679H11.354V10c0-.886-.018-2.025-1.232-2.025-1.236,0-1.425.964-1.425,1.961v3.779H6.325V6.079H8.6V7.121h.032a2.5,2.5,0,0,1,2.246-1.232c2.4,0,2.846,1.582,2.846,3.639Z"/></svg>