<svg xmlns="http://www.w3.org/2000/svg" width="40" height="40" viewBox="0 0 40 40"><defs><style>.a{fill:none;}.b{fill:#4797ab;}</style></defs><path class="a" d="M0,0H40V40H0Z"/><path class="b" d="M10.949,7.974,7.84,4.876,5.4,7.317l3.092,3.1ZM1,17.769H6.182v3.461H1ZM18.273.55h3.455V5.655H18.273ZM32.16,4.868,34.592,7.3,31.5,10.4,29.07,7.964ZM29.051,31.026l3.092,3.115,2.435-2.44-3.109-3.1Zm4.767-13.256H39v3.461H33.818ZM20,9.116A10.384,10.384,0,1,0,30.364,19.5,10.382,10.382,0,0,0,20,9.116Zm0,17.306A6.922,6.922,0,1,1,26.909,19.5,6.914,6.914,0,0,1,20,26.422Zm-1.727,6.922h3.455V38.45H18.273ZM5.4,31.683l2.435,2.44,3.092-3.115L8.5,28.568Z" transform="translate(0 0)"/></svg>